<svg width="60" height="60" viewBox="0 0 60 60" fill="none" xmlns="http://www.w3.org/2000/svg">
<path fill-rule="evenodd" clip-rule="evenodd" d="M27.1355 50.7762L17.8652 41.5058C16.9352 40.5759 15.4134 40.5759 14.4833 41.5058L7.2363 48.7528L7.03122 48.9579V52.9688H42.0025L41.7681 52.7345L35.1636 46.1299C34.2336 45.1999 32.7118 45.1999 31.7818 46.1299L27.1355 50.7762Z" fill="#D72323"/>
<path fill-rule="evenodd" clip-rule="evenodd" d="M32.9297 7.03125H52.9689V30.4686H32.9297V7.03125Z" fill="#D72323"/>
<path d="M56.4844 0H3.51561C1.5771 0 0 1.5771 0 3.51561V56.4844C0 58.4229 1.5771 60 3.51561 60H56.4844C58.4229 60 60 58.4229 60 56.4844V3.51561C60 1.5771 58.4229 0 56.4844 0V0ZM57.6563 56.4844C57.6563 57.1306 57.1306 57.6563 56.4844 57.6563H3.51561C2.86944 57.6563 2.34374 57.1306 2.34374 56.4844V3.51561C2.34374 2.86944 2.86944 2.34374 3.51561 2.34374H56.4844C57.1306 2.34374 57.6563 2.86944 57.6563 3.51561V56.4844Z" fill="#232E36"/>
<path d="M7.03122 14.0625H27.0703C27.7175 14.0625 28.2422 13.5379 28.2422 12.8906V7.03125C28.2422 6.38402 27.7175 5.85938 27.0703 5.85938H7.03122C6.38399 5.85938 5.85934 6.38402 5.85934 7.03125V12.8906C5.85934 13.5379 6.38399 14.0625 7.03122 14.0625ZM8.20309 8.20313H25.8984V11.7188H8.20309V8.20313Z" fill="#232E36"/>
<path d="M52.9688 35.156H7.03121C6.38399 35.156 5.85934 35.6807 5.85934 36.3279V52.9687C5.85934 53.6159 6.38399 54.1405 7.03121 54.1405H52.9688C53.616 54.1405 54.1406 53.6159 54.1406 52.9687V36.3279C54.1406 35.6807 53.616 35.156 52.9688 35.156ZM51.7969 51.7968H8.20309V37.4997H51.7969V51.7968Z" fill="#232E36"/>
<path d="M7.03122 19.9219H27.0703C27.7175 19.9219 28.2422 19.3972 28.2422 18.75C28.2422 18.1028 27.7175 17.5781 27.0703 17.5781H7.03122C5.48423 17.6327 5.47356 19.8627 7.03122 19.9219Z" fill="#232E36"/>
<path d="M7.03122 25.7813H27.0703C27.7175 25.7813 28.2422 25.2566 28.2422 24.6094C28.2422 23.9621 27.7175 23.4375 27.0703 23.4375H7.03122C5.48423 23.4921 5.47356 25.7221 7.03122 25.7813Z" fill="#232E36"/>
<path d="M7.03121 31.6404H17.0507C17.698 31.6404 18.2226 31.1157 18.2226 30.4685C18.2226 29.8213 17.698 29.2966 17.0507 29.2966H7.03121C5.48118 29.3528 5.47637 31.5823 7.03121 31.6404Z" fill="#232E36"/>
<path d="M44.6977 48.4467C46.9921 48.4467 48.8588 46.58 48.8588 44.2856C48.6496 38.7729 40.745 38.7744 40.5366 44.2856C40.5366 46.58 42.4033 48.4467 44.6977 48.4467V48.4467ZM44.6977 42.4681C45.6998 42.4681 46.5151 43.2834 46.5151 44.2855C46.4237 46.6932 42.9713 46.6925 42.8804 44.2855C42.8804 43.2834 43.6956 42.4681 44.6977 42.4681V42.4681Z" fill="#232E36"/>
</svg>
