<svg width="60" height="60" viewBox="0 0 60 60" fill="none" xmlns="http://www.w3.org/2000/svg">
<path d="M56.953 49.0002V10.9999C58.8041 9.98281 60 8.0095 60 5.85935C59.9537 -0.191601 51.9253 -2.21038 49.0002 3.04698H10.9998C9.98281 1.19589 8.0095 0 5.85935 0C-0.191718 0.0462889 -2.21026 8.07477 3.04686 10.9999V49.0002C1.19578 50.0173 0 51.9906 0 54.1406C0.0462889 60.1916 8.07466 62.2104 10.9998 56.9531H49.0001C50.0171 58.8042 51.9904 60 54.1405 60C60.1916 59.9537 62.2103 51.9253 56.953 49.0002V49.0002ZM54.1406 57.6563C52.681 57.6563 51.3571 56.7379 50.8464 55.3711C50.6752 54.913 50.2376 54.6094 49.7486 54.6094H10.2515C9.7625 54.6094 9.32492 54.913 9.15371 55.3711C8.64301 56.7379 7.31915 57.6563 5.85947 57.6563C3.92096 57.6563 2.34386 56.0792 2.34386 54.1406C2.34386 52.6811 3.26225 51.3571 4.62912 50.8464C5.08721 50.6753 5.39084 50.2377 5.39084 49.7487V10.2515C5.39084 9.7625 5.08721 9.32492 4.62912 9.15383C3.26214 8.64301 2.34374 7.31903 2.34374 5.85935C2.34374 3.92084 3.92084 2.34374 5.85935 2.34374C7.31903 2.34374 8.6429 3.26214 9.1536 4.62901C9.32481 5.08709 9.76238 5.39072 10.2514 5.39072H49.7485C50.2375 5.39072 50.6751 5.08709 50.8463 4.62901C52.2582 1.01414 57.5918 1.93804 57.6561 5.85947C57.6561 7.31915 56.7377 8.64301 55.3709 9.15383C54.9128 9.32492 54.6092 9.7625 54.6092 10.2515V49.7487C54.6092 50.2377 54.9128 50.6753 55.3709 50.8464C58.9857 52.2583 58.062 57.5919 54.1406 57.6563V57.6563Z" fill="#232E36"/>
<path fill-rule="evenodd" clip-rule="evenodd" d="M10.0782 10.0781H49.9218V49.9217H10.0782V10.0781Z" fill="#D72323"/>
<path d="M45.2343 13.5938H14.7657C14.1185 13.5938 13.5938 14.1185 13.5938 14.7656V45.2344C13.5938 45.8815 14.1185 46.4062 14.7657 46.4062H45.2343C45.8815 46.4062 46.4062 45.8815 46.4062 45.2344V14.7656C46.4062 14.1185 45.8815 13.5938 45.2343 13.5938V13.5938ZM44.0624 15.9375V34.6678L41.3834 31.9888C40.0034 30.6088 37.7581 30.6091 36.3781 31.9888L32.6071 35.76L24.2581 27.411C22.8781 26.031 20.6328 26.0313 19.2528 27.411L15.9377 30.7261V15.9375H44.0624ZM15.9376 44.0625V34.0407L20.9099 29.0683C21.3761 28.6021 22.1346 28.6021 22.6007 29.0683L31.7783 38.2459C31.998 38.4656 32.2962 38.5892 32.6069 38.5892C32.9177 38.5892 33.2158 38.4656 33.4356 38.2459L38.0353 33.6461C38.5014 33.1798 39.26 33.18 39.726 33.6461L44.0624 37.9825V44.0625H15.9376Z" fill="white"/>
<path d="M32.8014 27.715C35.0793 27.715 36.9326 25.8618 36.9326 23.5838C36.7249 18.1106 28.877 18.1122 28.6702 23.5838C28.6703 25.8617 30.5235 27.715 32.8014 27.715ZM32.8014 21.7963C33.787 21.7963 34.5888 22.5982 34.5888 23.5838C34.499 25.9518 31.1035 25.9512 31.0139 23.5838C31.014 22.5982 31.8158 21.7963 32.8014 21.7963V21.7963Z" fill="white"/>
</svg>
