<svg width="60" height="60" viewBox="0 0 60 60" fill="none" xmlns="http://www.w3.org/2000/svg">
<path fill-rule="evenodd" clip-rule="evenodd" d="M8.90633 8.90625H51.0937V51.0936H8.90633V8.90625Z" fill="#D72323"/>
<path d="M8.90637 0H1.17188C0.524766 0 0 0.524766 0 1.17188V8.90648C0 9.55359 0.524766 10.0784 1.17188 10.0784C1.81898 10.0784 2.34375 9.55359 2.34375 8.90648V2.34375H8.90637C9.55348 2.34375 10.0782 1.81898 10.0782 1.17188C10.0782 0.524766 9.55348 0 8.90637 0V0Z" fill="#232E36"/>
<path d="M18.2813 2.34375H41.7188C42.3659 2.34375 42.8907 1.81898 42.8907 1.17187C42.8907 0.524766 42.3659 0 41.7188 0H18.2813C16.7354 0.0542578 16.7226 2.28422 18.2813 2.34375Z" fill="#232E36"/>
<path d="M8.90637 57.6562H2.34375V51.0937C2.34375 50.4466 1.81898 49.9219 1.17187 49.9219C0.524766 49.9219 0 50.4466 0 51.0937V58.8281C0 59.4752 0.524766 60 1.17187 60H8.90637C10.4554 59.9468 10.4595 57.7108 8.90637 57.6562Z" fill="#232E36"/>
<path d="M1.17187 42.8909C1.81898 42.8909 2.34375 42.3661 2.34375 41.719V18.2815C2.34375 17.6344 1.81898 17.1096 1.17187 17.1096C0.524766 17.1096 0 17.6344 0 18.2815V41.719C0 42.3661 0.524766 42.8909 1.17187 42.8909Z" fill="#232E36"/>
<path d="M58.8281 49.9219C58.181 49.9219 57.6563 50.4466 57.6563 51.0937V57.6562H51.0937C50.4466 57.6562 49.9218 58.181 49.9218 58.8281C49.9218 59.4752 50.4466 60 51.0937 60H58.8281C59.4753 60 60 59.4752 60 58.8281V51.0937C60 50.4465 59.4753 49.9219 58.8281 49.9219Z" fill="#232E36"/>
<path d="M58.8281 0H51.0937C50.4466 0 49.9218 0.524766 49.9218 1.17188C49.9218 1.81898 50.4466 2.34375 51.0937 2.34375H57.6563V8.90648C57.6563 9.55359 58.181 10.0784 58.8281 10.0784C59.4753 10.0784 60 9.55359 60 8.90648V1.17188C60 0.524766 59.4753 0 58.8281 0V0Z" fill="#232E36"/>
<path d="M41.7188 57.6562H18.2813C17.6342 57.6562 17.1094 58.181 17.1094 58.8281C17.1094 59.4752 17.6342 60 18.2813 60H41.7188C43.2647 59.9457 43.2775 57.7158 41.7188 57.6562Z" fill="#232E36"/>
<path d="M58.8281 17.1096C58.181 17.1096 57.6563 17.6344 57.6563 18.2815V41.719C57.6563 42.3661 58.181 42.8909 58.8281 42.8909C59.4752 42.8909 60 42.3661 60 41.719V18.2815C60 17.6343 59.4752 17.1096 58.8281 17.1096Z" fill="#232E36"/>
<path d="M45.2342 20.6252C46.787 20.5677 46.7866 18.3388 45.2342 18.2815H41.7186V14.7659C41.7186 14.1188 41.1938 13.594 40.5467 13.594C39.8996 13.594 39.3748 14.1188 39.3748 14.7659V18.2815H31.1719V14.7659C31.1719 14.1188 30.6471 13.594 30 13.594C29.3529 13.594 28.8281 14.1188 28.8281 14.7659V18.2815H20.625V14.7659C20.625 14.1188 20.1003 13.594 19.4532 13.594C18.8061 13.594 18.2813 14.1188 18.2813 14.7659V18.2815H14.7657C14.1186 18.2815 13.5938 18.8062 13.5938 19.4533C13.5938 20.1005 14.1186 20.6252 14.7657 20.6252H18.2813V28.8283H14.7657C14.1186 28.8283 13.5938 29.3531 13.5938 30.0002C13.5938 30.6473 14.1186 31.172 14.7657 31.172H18.2813V39.375H14.7657C14.1186 39.375 13.5938 39.8998 13.5938 40.5469C13.5938 41.194 14.1186 41.7188 14.7657 41.7188H18.2813V45.2344C18.2813 45.8815 18.8061 46.4062 19.4532 46.4062C20.1003 46.4062 20.625 45.8815 20.625 45.2344V41.7188H28.8281V45.2344C28.8281 45.8815 29.3529 46.4062 30 46.4062C30.6471 46.4062 31.1719 45.8815 31.1719 45.2344V41.7188H39.3748V45.2344C39.3748 45.8815 39.8996 46.4062 40.5467 46.4062C41.1938 46.4062 41.7186 45.8815 41.7186 45.2344V41.7188H45.2342C45.8813 41.7188 46.4061 41.194 46.4061 40.5469C46.4061 39.8998 45.8813 39.375 45.2342 39.375H41.7186V31.172H45.2342C45.8813 31.172 46.4061 30.6473 46.4061 30.0002C46.4061 29.3531 45.8813 28.8283 45.2342 28.8283H41.7186V20.6252H45.2342ZM20.625 20.6252H28.8281V28.8283H20.625V20.6252ZM20.625 39.375V31.172H28.8281V39.375H20.625ZM39.3748 39.375H31.1719V31.172H39.3748V39.375ZM39.3748 28.8283H31.1719V20.6252H39.3748V28.8283Z" fill="white"/>
</svg>
