<svg width="60" height="60" viewBox="0 0 60 60" fill="none" xmlns="http://www.w3.org/2000/svg">
<path fill-rule="evenodd" clip-rule="evenodd" d="M52.9688 11.1743L11.1744 52.9687H52.9688V11.1743Z" fill="#D72323"/>
<path d="M56.4844 0H3.51561C1.5771 0 0 1.5771 0 3.51561V56.4844C0 58.4229 1.5771 60 3.51561 60H56.4843C58.4228 60 59.9999 58.4229 59.9999 56.4844V3.51561C60 1.5771 58.4229 0 56.4844 0V0ZM57.6563 56.4844C57.6563 57.1306 57.1306 57.6563 56.4844 57.6563H3.51561C2.86944 57.6563 2.34374 57.1306 2.34374 56.4844V3.51561C2.34374 2.86944 2.86944 2.34374 3.51561 2.34374H56.4843C57.1304 2.34374 57.6561 2.86944 57.6561 3.51561V56.4844H57.6563Z" fill="#232E36"/>
<path d="M48.8256 5.85923H7.03123C6.38401 5.85923 5.85936 6.38388 5.85936 7.0311V48.8255C5.85936 49.2994 6.14494 49.7268 6.58276 49.9082C7.01623 50.0888 7.52377 49.9909 7.85986 49.6543L49.6543 7.85985C50.3791 7.1504 49.8684 5.84587 48.8256 5.85923ZM8.2031 45.9963V8.20297H45.9965L8.2031 45.9963Z" fill="#232E36"/>
<path d="M15.586 20.2734H17.9298V22.6172C17.9298 23.2644 18.4544 23.7891 19.1016 23.7891C19.7489 23.7891 20.2735 23.2644 20.2735 22.6172V20.2734H22.6173C23.2645 20.2734 23.7891 19.7488 23.7891 19.1016C23.7891 18.4543 23.2645 17.9297 22.6173 17.9297H20.2735V15.5859C20.2735 14.9387 19.7489 14.4141 19.1016 14.4141C18.4544 14.4141 17.9298 14.9387 17.9298 15.5859V17.9297H15.586C14.0332 17.9871 14.0336 20.2164 15.586 20.2734Z" fill="#232E36"/>
<path d="M44.414 39.7266H37.3828C35.8319 39.783 35.8286 42.0124 37.3828 42.0703H44.414C45.0613 42.0703 45.5859 41.5457 45.5859 40.8984C45.5859 40.2512 45.0613 39.7266 44.414 39.7266Z" fill="white"/>
</svg>
